<svg xmlns="http://www.w3.org/2000/svg" version="1.1" xmlns:xlink="http://www.w3.org/1999/xlink" xmlns:svgjs="http://svgjs.dev/svgjs" width="1500" height="1500" viewBox="0 0 1500 1500"><rect width="1500" height="1500" fill="#0042c7"></rect><g transform="matrix(0.6666666666666666,0,0,0.6666666666666666,250.42472420137028,270.0556005398111)"><svg viewBox="0 0 257 247" data-background-color="#0042c7" preserveAspectRatio="xMidYMid meet" height="1441" width="1500" xmlns="http://www.w3.org/2000/svg" xmlns:xlink="http://www.w3.org/1999/xlink"><g id="tight-bounds" transform="matrix(1,0,0,1,-0.10915411975216216,-0.09999999999999432)"><svg viewBox="0 0 257.2183082395043 247.2" height="247.2" width="257.2183082395043"><g><svg viewBox="0 0 395.52 380.11502629494316" height="247.2" width="257.2183082395043"><g transform="matrix(1,0,0,1,0,265.90456535152356)"><svg viewBox="0 0 395.52 114.21046094341959" height="114.21046094341959" width="395.52"><g id="textblocktransform"><svg viewBox="0 0 395.52 114.21046094341959" height="114.21046094341959" width="395.52" id="textblock"><g><rect width="75.54432" height="7.169645863476299" y="102.65616804192693" fill="#e1e1dd" data-fill-palette-color="tertiary"></rect><rect width="75.54432" height="7.169645863476299" y="102.65616804192693" x="319.97568" fill="#e1e1dd" data-fill-palette-color="tertiary"></rect></g><g><svg viewBox="0 0 395.52 79.50281455501973" height="79.50281455501973" width="395.52"><g transform="matrix(1,0,0,1,0,0)"><svg width="395.52" viewBox="1.6 -36.05 228.08 45.849999999999994" height="79.50281455501973" data-palette-color="#e1e1dd"><path d="M20.35-32.4Q25.35-32.4 28.18-30.08 31-27.75 31-23.55L31-23.55Q31-19.35 29.05-16.07 27.1-12.8 23.53-10.98 19.95-9.15 15.3-9.15L15.3-9.15 12.4-9.15 11.6 0 1.6 0 3.25-9.5 5.55-32.35 20.35-32.4ZM17.05-16.15Q18.85-17.05 19.63-18.43 20.4-19.8 20.4-21.9L20.4-21.9Q20.4-23.65 19.45-24.53 18.5-25.4 16.5-25.5L16.5-25.5 14.7-25.35 13.35-16.35 17.05-16.15ZM43.25-24.2L44.05-24.1Q47.55-23.3 49.55-21.03 51.55-18.75 51.55-15.05L51.55-15.05Q51.55-7.95 47.85-3.85 44.15 0.25 37.65 0.6L37.65 0.6 36.85 0.5Q33.3-0.3 31.32-2.7 29.35-5.1 29.35-9.15L29.35-9.15Q29.35-13.55 31.05-16.85 32.75-20.15 35.87-22.05 39-23.95 43.25-24.2L43.25-24.2ZM41.5-17.4Q39.9-17.4 39.12-16.57 38.35-15.75 38.1-14 37.85-12.25 37.85-8.95L37.85-8.95Q37.85-7.25 38.17-6.63 38.5-6 39.45-6L39.45-6Q41-6 41.72-6.83 42.45-7.65 42.7-9.4 42.95-11.15 42.95-14.5L42.95-14.5Q42.95-16.15 42.65-16.78 42.35-17.4 41.5-17.4L41.5-17.4ZM70.6-23.75L72.05-23.5 70.65-12.7 69.85-12.35 68.05-12.7Q66.4-12.6 65.17-12.05 63.95-11.5 62.5-10.15L62.5-10.15 61.95-5.8 61.75-0.35 52.9 0.2 55.25-17.6 55.45-23.25 64.3-23.8 63.5-17.6 64.35-17.6Q65.75-19.75 67.2-21.2 68.65-22.65 70.6-23.75L70.6-23.75ZM84.89-18.1L83.39-8.25 83.34-7.85Q83.34-7.4 83.79-7.4L83.79-7.4Q84.09-7.4 84.44-7.75 84.79-8.1 85.84-9.6L85.84-9.6 86.49-9.65 88.99-6.5Q87.49-3.65 85.67-1.95 83.84-0.25 81.49 0.5L81.49 0.5Q78.29 0.5 76.47-1.1 74.64-2.7 74.74-5.35L74.74-5.35 74.89-6.85 76.49-17.75 76.54-18.1 73.44-18.1 72.99-18.65 73.54-23.15 77.04-23.15 77.54-28 85.99-29.9 86.59-29.4 85.64-23.15 90.54-23.15 91.14-22.45 90.59-18.1 84.89-18.1ZM114.29-34.4L114.74-33.7 112.39-27.7 111.24-27.3Q108.49-28.75 107.09-28.75L107.09-28.75Q106.04-28.75 105.39-27.95 104.74-27.15 104.49-25.4L104.49-25.4 104.19-23.15 108.84-23.15 109.44-22.45 108.79-18.1 103.44-18.1 102.34-10.5 101.09-0.6 100.89 4.85 92.04 5.4 93.99-9.5 94.89-18.1 91.79-18.1 91.39-18.65 91.99-23.15 95.44-23.15 95.44-23.3Q96.09-29.15 99.49-32.13 102.89-35.1 108.64-35.1L108.64-35.1 114.29-34.4ZM121.44-24.2L122.24-24.1Q125.74-23.3 127.74-21.03 129.74-18.75 129.74-15.05L129.74-15.05Q129.74-7.95 126.04-3.85 122.34 0.25 115.84 0.6L115.84 0.6 115.04 0.5Q111.49-0.3 109.51-2.7 107.54-5.1 107.54-9.15L107.54-9.15Q107.54-13.55 109.24-16.85 110.94-20.15 114.06-22.05 117.19-23.95 121.44-24.2L121.44-24.2ZM119.69-17.4Q118.09-17.4 117.31-16.57 116.54-15.75 116.29-14 116.04-12.25 116.04-8.95L116.04-8.95Q116.04-7.25 116.36-6.63 116.69-6 117.64-6L117.64-6Q119.19-6 119.91-6.83 120.64-7.65 120.89-9.4 121.14-11.15 121.14-14.5L121.14-14.5Q121.14-16.15 120.84-16.78 120.54-17.4 119.69-17.4L119.69-17.4ZM144.19-35.2L140.24-5.8 140.09-0.35 131.19 0.2 135.14-29 135.28-34.65 144.19-35.2ZM155.83-23.8L153.53-5.8 153.28-0.35 144.43 0.2 146.78-17.6 146.98-23.25 155.83-23.8ZM152.63-36.05Q154.83-36.05 156.03-34.8 157.23-33.55 157.23-31.35L157.23-31.35Q157.23-28.95 155.88-27.55 154.53-26.15 152.23-26.15L152.23-26.15Q149.93-26.15 148.73-27.38 147.53-28.6 147.53-30.9L147.53-30.9Q147.53-33.25 148.91-34.65 150.28-36.05 152.63-36.05L152.63-36.05ZM179.73-24.2L180.28-23.8 177.93-5.8 177.73-0.35 168.88 0.2 169.63-5.3 168.83-5.3Q167.08-1.8 165.13 0.55L165.13 0.55 163.98 0.55Q160.08-0.4 158.58-2.48 157.08-4.55 157.08-7.85L157.08-7.85Q157.08-11.05 158.38-14.23 159.68-17.4 162.38-19.98 165.08-22.55 169.08-23.9L169.08-23.9 169.43-23.9 174.28-23.05 179.73-24.2ZM166.33-7.6Q167.13-7.6 168.23-9.5 169.33-11.4 170.98-15.45L170.98-15.45 171.13-16.55 167.73-17.4Q165.28-17.4 165.28-11.55L165.28-11.55Q165.28-7.6 166.33-7.6L166.33-7.6ZM198.43-23.9Q202.13-22.95 203.65-20.95 205.18-18.95 205.18-15.55L205.18-15.55Q205.18-12.25 203.85-9.05 202.53-5.85 199.88-3.28 197.23-0.7 193.43 0.55L193.43 0.55 193.08 0.55 190.13 0 189.63 3.8 189.43 9.25 180.58 9.8 184.18-17.6 184.38-23.25 193.23-23.8 192.43-17.85 193.33-17.85Q195.18-21.4 197.28-23.9L197.28-23.9 198.43-23.9ZM194.83-5.9Q195.93-5.9 196.5-7.5 197.08-9.1 197.08-11.9L197.08-11.9Q197.08-16.05 196.03-16.05L196.03-16.05Q195.28-16.05 194.1-14.1 192.93-12.15 191.18-8.15L191.18-8.15 191.03-6.9 194.83-5.9ZM222.93-23.9Q226.63-22.95 228.15-20.95 229.68-18.95 229.68-15.55L229.68-15.55Q229.68-12.25 228.35-9.05 227.03-5.85 224.38-3.28 221.73-0.7 217.93 0.55L217.93 0.55 217.58 0.55 214.63 0 214.13 3.8 213.93 9.25 205.08 9.8 208.68-17.6 208.88-23.25 217.73-23.8 216.93-17.85 217.83-17.85Q219.68-21.4 221.78-23.9L221.78-23.9 222.93-23.9ZM219.33-5.9Q220.43-5.9 221-7.5 221.58-9.1 221.58-11.9L221.58-11.9Q221.58-16.05 220.53-16.05L220.53-16.05Q219.78-16.05 218.6-14.1 217.43-12.15 215.68-8.15L215.68-8.15 215.53-6.9 219.33-5.9Z" opacity="1" transform="matrix(1,0,0,1,0,0)" fill="#e1e1dd" class="wordmark-text-0" data-fill-palette-color="primary" id="text-0"></path></svg></g></svg></g><g transform="matrix(1,0,0,1,75.54432,98.27152100391056)"><svg viewBox="0 0 244.43135999999998 15.938939939509034" height="15.938939939509034" width="244.43135999999998"><g transform="matrix(1,0,0,1,8,0)"><svg width="228.43135999999998" viewBox="0.45 -38.1 710.78 49.6" height="15.938939939509034" data-palette-color="#e1e1dd"><path d="M28.05-7.7L29.45-3.6 18.95 0.85Q12.4 1.1 8.25-1.35 4.1-3.8 2.27-7.75 0.45-11.7 0.45-16.1L0.45-16.1Q0.45-20.8 2.43-24.9 4.4-29 8.35-31.55 12.3-34.1 17.95-34.1L17.95-34.1Q24-34.1 28.5-30.85L28.5-30.85 28.55-29.9Q28.55-25.85 27.3-21.25L27.3-21.25 21.9-21.25 20.4-27.95Q17.25-29.15 13.9-29.3L13.9-29.3Q11.7-27.35 10.63-24.15 9.55-20.95 9.55-17.4L9.55-17.4Q9.55-11.9 12.13-8.4 14.7-4.9 19.55-5L19.55-5 28.05-7.7ZM42.75-16.95L42-16.4 42-4.55Q45.35-3.75 47.45-2.45L47.45-2.45 47.35 0 29.75 0 29.65-1.75Q31.2-2.65 33.35-3.4L33.35-3.4 33.35-19.95 29.65-20.65 29.4-23.05Q33.85-24.75 39.3-24.9L39.3-24.9 42-21.15 42-20.25 45.95-24.7Q46.7-24.95 47.85-24.95L47.85-24.95Q49.85-24.95 51.52-23.95 53.2-22.95 53.85-21.15L53.85-21.15 48.1-13.9Q44.75-16.7 42.75-16.95L42.75-16.95ZM77.3-14.35L74.4-11.45 61.8-11.55Q62.15-8.3 64.12-6.55 66.09-4.8 69.09-4.8L69.09-4.8Q71.75-4.8 75.45-6.7L75.45-6.7 76.7-3.85 68.84 0.6 66.55 0.75Q61 0.75 57.32-2.75 53.65-6.25 53.65-11.7L53.65-11.7Q53.65-17.25 57.37-21.13 61.1-25 66.4-25L66.4-25Q71.25-25 74.3-22.08 77.34-19.15 77.3-14.35L77.3-14.35ZM65.05-20.85L65.05-20.85Q62.65-19.35 62-15.35L62-15.35 69.5-15.8Q69.2-17.85 67.97-19.33 66.75-20.8 65.05-20.85ZM105.04-5.05L105.34-2.85 98.74 0.85Q97.34 0.8 95.94-0.2 94.54-1.2 93.64-2.8L93.64-2.8 88.34 0.65 86.64 0.8Q83.39 0.8 81.22-1.1 79.04-3 79.04-5.7L79.04-5.7Q79.04-9.45 83.09-11.6L83.09-11.6 92.59-11.8 92.59-15.9Q92.59-19.75 90.29-20.95L90.29-20.95Q88.69-20.85 87.49-20.35L87.49-20.35 86.29-14.85 81.39-14.75Q80.44-17.45 80.44-20.45L80.44-20.45 80.54-22.3Q83.54-23.45 87.49-24.28 91.44-25.1 93.59-25.1L93.59-25.1Q98.04-25.1 100.64-21.45L100.64-21.45Q101.19-20.5 101.24-17.65L101.24-17.65 101.24-6.2Q101.24-4.9 102.49-4.9L102.49-4.9 103.84-4.95 105.04-5.05ZM87.59-6.25L87.59-6.25Q87.59-4.95 88.44-4.1L88.44-4.1Q89.94-4.2 92.59-5.05L92.59-5.05 92.59-8.75Q87.59-8.85 87.59-6.25ZM120.14-5.55L120.14-5.55Q121.89-5.55 124.14-6L124.14-6 124.49-3.4 116.24 0.85Q113.74 0.95 111.67-0.73 109.59-2.4 109.59-4.65L109.59-4.65 109.59-18.05 105.94-18.05 105.79-20.75Q107.44-22.15 110.04-23.65L110.04-23.65 112.79-30.35 116.74-30.35 117.99-23.65 124.89-23.65 124.94-21.15 122.44-18 118.24-18 118.24-7.7Q118.24-5.55 120.14-5.55ZM149.99-14.35L147.09-11.45 134.49-11.55Q134.84-8.3 136.81-6.55 138.79-4.8 141.79-4.8L141.79-4.8Q144.44-4.8 148.14-6.7L148.14-6.7 149.39-3.85 141.54 0.6 139.24 0.75Q133.69 0.75 130.01-2.75 126.34-6.25 126.34-11.7L126.34-11.7Q126.34-17.25 130.06-21.13 133.79-25 139.09-25L139.09-25Q143.94-25 146.99-22.08 150.04-19.15 149.99-14.35L149.99-14.35ZM137.74-20.85L137.74-20.85Q135.34-19.35 134.69-15.35L134.69-15.35 142.19-15.8Q141.89-17.85 140.66-19.33 139.44-20.8 137.74-20.85ZM192.48-23.95L192.63-21.5 190.18-20.2 187.63-11.4 185.83-5.9Q183.73 0.05 180.38 4.15 177.03 8.25 171.03 11.5L171.03 11.5 166.53 3.7Q173.13 1.7 177.73-0.8L177.73-0.8 172.83-2.2 166.63-19.1 162.83-21.2 162.88-23.95 174.13-23.95 177.63-11.8 178.03-7.8 178.83-7.8Q181.23-17.3 182.23-23.95L182.23-23.95 192.48-23.95ZM192.08-12.15L192.08-12.15Q192.08-17.8 195.63-21.4 199.18-25 204.63-25 210.08-25 213.58-21.35 217.08-17.7 217.08-11.9L217.08-11.9Q217.08-6.15 213.66-2.58 210.23 1 204.83 1L204.83 1Q199.33 1 195.71-2.73 192.08-6.45 192.08-12.15ZM206.48-3.75L206.48-3.75Q208.33-5.15 208.33-11.35L208.33-11.35Q208.33-20.2 204.28-20.2L204.28-20.2Q203.03-20.2 202.33-19.65L202.33-19.65Q200.83-17.65 200.83-12.05L200.83-12.05Q200.83-8.25 201.88-5.88 202.93-3.5 205.08-3.5L205.08-3.5Q205.78-3.5 206.48-3.75ZM249.08-5.05L249.38-2.85 242.73 0.85Q241.28 0.75 239.8-0.4 238.33-1.55 237.43-3.4L237.43-3.4Q233.43-0.35 229.38 0.85L229.38 0.85Q226.83 0.85 224.55-0.75 222.28-2.35 221.98-4.75L221.98-4.75 221.83-7.6 221.83-19.95 218.13-20.65 217.88-23.05Q222.33-24.75 227.78-24.9L227.78-24.9 230.48-22.5 230.48-9.3Q230.48-5.15 233.63-5.15L233.63-5.15Q235.18-5.15 236.63-5.8L236.63-5.8 236.63-20.1 233.83-20.8 233.58-23.2Q237.58-24.8 242.58-24.9L242.58-24.9 245.28-22.5 245.28-6.2Q245.28-4.9 246.53-4.9L246.53-4.9 247.83-4.95 249.08-5.05ZM263.48-16.95L262.73-16.4 262.73-4.55Q266.08-3.75 268.18-2.45L268.18-2.45 268.08 0 250.48 0 250.38-1.75Q251.93-2.65 254.08-3.4L254.08-3.4 254.08-19.95 250.38-20.65 250.13-23.05Q254.58-24.75 260.03-24.9L260.03-24.9 262.73-21.15 262.73-20.25 266.68-24.7Q267.43-24.95 268.58-24.95L268.58-24.95Q270.58-24.95 272.25-23.95 273.93-22.95 274.58-21.15L274.58-21.15 268.83-13.9Q265.48-16.7 263.48-16.95L263.48-16.95ZM304.02 0.3L304.02 0.3Q302.22 0.3 300.47-0.05L300.47-0.05 300.47 5.5Q303.47 6.7 305.22 7.65L305.22 7.65 305.12 10.1 288.62 10.1 288.52 8.35 291.82 7.05 291.82-19.95 288.17-20.65 287.92-23.05Q292.37-24.75 297.82-24.9L297.82-24.9 297.82-24.85 300.47-22.5 300.47-20.65 305.72-24.55 307.42-24.7Q311.52-24.7 314.15-21.38 316.77-18.05 316.77-13.05L316.77-13.05Q316.77-7.2 313.22-3.45 309.67 0.3 304.02 0.3ZM302.87-18.65L302.87-18.65Q301.77-18.65 300.47-18.05L300.47-18.05 300.47-4.35Q302.72-3.75 304.77-3.9L304.77-3.9Q306.02-5.1 306.8-7.23 307.57-9.35 307.57-11.6L307.57-11.6Q307.57-14.5 306.32-16.57 305.07-18.65 302.87-18.65ZM341.92-14.35L339.02-11.45 326.42-11.55Q326.77-8.3 328.74-6.55 330.72-4.8 333.72-4.8L333.72-4.8Q336.37-4.8 340.07-6.7L340.07-6.7 341.32-3.85 333.47 0.6 331.17 0.75Q325.62 0.75 321.94-2.75 318.27-6.25 318.27-11.7L318.27-11.7Q318.27-17.25 321.99-21.13 325.72-25 331.02-25L331.02-25Q335.87-25 338.92-22.08 341.97-19.15 341.92-14.35L341.92-14.35ZM329.67-20.85L329.67-20.85Q327.27-19.35 326.62-15.35L326.62-15.35 334.12-15.8Q333.82-17.85 332.59-19.33 331.37-20.8 329.67-20.85ZM356.07-16.95L355.32-16.4 355.32-4.55Q358.67-3.75 360.77-2.45L360.77-2.45 360.67 0 343.07 0 342.97-1.75Q344.52-2.65 346.67-3.4L346.67-3.4 346.67-19.95 342.97-20.65 342.72-23.05Q347.17-24.75 352.62-24.9L352.62-24.9 355.32-21.15 355.32-20.25 359.27-24.7Q360.02-24.95 361.17-24.95L361.17-24.95Q363.17-24.95 364.84-23.95 366.52-22.95 367.17-21.15L367.17-21.15 361.42-13.9Q358.07-16.7 356.07-16.95L356.07-16.95ZM376.41-19.05L376.41-19.05Q376.41-18.15 377.06-17.43 377.71-16.7 381.71-14.63 385.71-12.55 387.11-10.78 388.51-9 388.51-6.75L388.51-6.75Q388.51-3.35 385.71-1.18 382.91 1 378.26 1L378.26 1Q373.01 1 367.81-1.7L367.81-1.7 370.66-8.25Q375.01-4.9 379.66-3.25L379.66-3.25Q380.56-4.05 380.56-5.1L380.56-5.1Q380.56-6.05 379.84-6.8 379.11-7.55 375.24-9.53 371.36-11.5 369.99-13.23 368.61-14.95 368.61-17.15L368.61-17.15Q368.61-20.65 371.69-22.83 374.76-25 379.66-25L379.66-25Q384.21-25 387.41-23.35L387.41-23.35 387.51-21.6Q387.51-19 386.66-16.35L386.66-16.35 382.26-16.35 380.71-20.9 378.41-21.15Q376.41-20.55 376.41-19.05ZM390.46-12.15L390.46-12.15Q390.46-17.8 394.01-21.4 397.56-25 403.01-25 408.46-25 411.96-21.35 415.46-17.7 415.46-11.9L415.46-11.9Q415.46-6.15 412.04-2.58 408.61 1 403.21 1L403.21 1Q397.71 1 394.09-2.73 390.46-6.45 390.46-12.15ZM404.86-3.75L404.86-3.75Q406.71-5.15 406.71-11.35L406.71-11.35Q406.71-20.2 402.66-20.2L402.66-20.2Q401.41-20.2 400.71-19.65L400.71-19.65Q399.21-17.65 399.21-12.05L399.21-12.05Q399.21-8.25 400.26-5.88 401.31-3.5 403.46-3.5L403.46-3.5Q404.16-3.5 404.86-3.75ZM444.51-16.6L444.51-4.2Q446.71-3.45 448.11-2.45L448.11-2.45 447.96 0 435.86 0 435.86-13.85Q435.86-18.9 432.66-18.9L432.66-18.9Q431.21-18.9 429.41-18L429.41-18 429.41-4.05Q431.21-3.25 432.31-2.45L432.31-2.45 432.21 0 417.16 0 417.06-1.75Q418.61-2.65 420.76-3.4L420.76-3.4 420.76-19.95 417.06-20.65 416.81-23.05Q421.26-24.75 426.71-24.9L426.71-24.9 429.41-22.2 429.41-20.6Q433.46-23.65 436.96-24.75L436.96-24.75Q441.66-24.6 443.91-21.15L443.91-21.15Q444.46-20.15 444.51-16.6L444.51-16.6ZM475.51-5.05L475.81-2.85 469.21 0.85Q467.81 0.8 466.41-0.2 465.01-1.2 464.11-2.8L464.11-2.8 458.81 0.65 457.11 0.8Q453.86 0.8 451.68-1.1 449.51-3 449.51-5.7L449.51-5.7Q449.51-9.45 453.56-11.6L453.56-11.6 463.06-11.8 463.06-15.9Q463.06-19.75 460.76-20.95L460.76-20.95Q459.16-20.85 457.96-20.35L457.96-20.35 456.76-14.85 451.86-14.75Q450.91-17.45 450.91-20.45L450.91-20.45 451.01-22.3Q454.01-23.45 457.96-24.28 461.91-25.1 464.06-25.1L464.06-25.1Q468.51-25.1 471.11-21.45L471.11-21.45Q471.66-20.5 471.71-17.65L471.71-17.65 471.71-6.2Q471.71-4.9 472.96-4.9L472.96-4.9 474.31-4.95 475.51-5.05ZM458.06-6.25L458.06-6.25Q458.06-4.95 458.91-4.1L458.91-4.1Q460.41-4.2 463.06-5.05L463.06-5.05 463.06-8.75Q458.06-8.85 458.06-6.25ZM489.1-34.35L489.1-4.2Q491.3-3.45 492.7-2.45L492.7-2.45 492.6 0 476.75 0 476.65-1.75Q478.4-2.75 480.45-3.45L480.45-3.45 480.45-31.85 476.75-32.5 476.5-35Q480.7-36.5 486.4-36.85L486.4-36.85 489.1-34.35ZM523.35 0.3L523.35 0.3Q521.55 0.3 519.8-0.05L519.8-0.05 519.8 5.5Q522.8 6.7 524.55 7.65L524.55 7.65 524.45 10.1 507.95 10.1 507.85 8.35 511.15 7.05 511.15-19.95 507.5-20.65 507.25-23.05Q511.7-24.75 517.15-24.9L517.15-24.9 517.15-24.85 519.8-22.5 519.8-20.65 525.05-24.55 526.75-24.7Q530.85-24.7 533.47-21.38 536.1-18.05 536.1-13.05L536.1-13.05Q536.1-7.2 532.55-3.45 529 0.3 523.35 0.3ZM522.2-18.65L522.2-18.65Q521.1-18.65 519.8-18.05L519.8-18.05 519.8-4.35Q522.05-3.75 524.1-3.9L524.1-3.9Q525.35-5.1 526.12-7.23 526.9-9.35 526.9-11.6L526.9-11.6Q526.9-14.5 525.65-16.57 524.4-18.65 522.2-18.65ZM537.6-12.15L537.6-12.15Q537.6-17.8 541.15-21.4 544.7-25 550.15-25 555.6-25 559.1-21.35 562.6-17.7 562.6-11.9L562.6-11.9Q562.6-6.15 559.17-2.58 555.75 1 550.35 1L550.35 1Q544.85 1 541.22-2.73 537.6-6.45 537.6-12.15ZM552-3.75L552-3.75Q553.85-5.15 553.85-11.35L553.85-11.35Q553.85-20.2 549.8-20.2L549.8-20.2Q548.55-20.2 547.85-19.65L547.85-19.65Q546.35-17.65 546.35-12.05L546.35-12.05Q546.35-8.25 547.4-5.88 548.45-3.5 550.6-3.5L550.6-3.5Q551.3-3.5 552-3.75ZM577.29-16.95L576.54-16.4 576.54-4.55Q579.89-3.75 581.99-2.45L581.99-2.45 581.89 0 564.29 0 564.19-1.75Q565.74-2.65 567.89-3.4L567.89-3.4 567.89-19.95 564.19-20.65 563.94-23.05Q568.39-24.75 573.84-24.9L573.84-24.9 576.54-21.15 576.54-20.25 580.49-24.7Q581.24-24.95 582.39-24.95L582.39-24.95Q584.39-24.95 586.07-23.95 587.74-22.95 588.39-21.15L588.39-21.15 582.64-13.9Q579.29-16.7 577.29-16.95L577.29-16.95ZM602.64-5.55L602.64-5.55Q604.39-5.55 606.64-6L606.64-6 606.99-3.4 598.74 0.85Q596.24 0.95 594.16-0.73 592.09-2.4 592.09-4.65L592.09-4.65 592.09-18.05 588.44-18.05 588.29-20.75Q589.94-22.15 592.54-23.65L592.54-23.65 595.29-30.35 599.24-30.35 600.49-23.65 607.39-23.65 607.44-21.15 604.94-18 600.74-18 600.74-7.7Q600.74-5.55 602.64-5.55ZM624.19-18L621.09-18 621.09-4.4Q623.59-3.7 625.64-2.45L625.64-2.45 625.54 0 609.19 0 609.09-1.75Q610.49-2.6 612.39-3.25L612.39-3.25 612.39-18.05 608.69-18 608.59-20.75 612.39-22.95 612.39-26.65Q612.39-31.3 615.34-34.43 618.29-37.55 622.59-37.55L622.59-37.55Q626.49-37.55 630.04-35.1L630.04-35.1 625.54-27.55Q622.34-30.7 617.99-32.05L617.99-32.05 621.04-23.65 626.64-23.65 626.74-21.2 624.19-18ZM626.83-12.15L626.83-12.15Q626.83-17.8 630.38-21.4 633.93-25 639.38-25 644.83-25 648.33-21.35 651.83-17.7 651.83-11.9L651.83-11.9Q651.83-6.15 648.41-2.58 644.98 1 639.58 1L639.58 1Q634.08 1 630.46-2.73 626.83-6.45 626.83-12.15ZM641.23-3.75L641.23-3.75Q643.08-5.15 643.08-11.35L643.08-11.35Q643.08-20.2 639.03-20.2L639.03-20.2Q637.78-20.2 637.08-19.65L637.08-19.65Q635.58-17.65 635.58-12.05L635.58-12.05Q635.58-8.25 636.63-5.88 637.68-3.5 639.83-3.5L639.83-3.5Q640.53-3.5 641.23-3.75ZM664.83-34.35L664.83-4.2Q667.03-3.45 668.43-2.45L668.43-2.45 668.33 0 652.48 0 652.38-1.75Q654.13-2.75 656.18-3.45L656.18-3.45 656.18-31.85 652.48-32.5 652.23-35Q656.43-36.5 662.13-36.85L662.13-36.85 664.83-34.35ZM677.53-27.55L677.53-27.55Q674.08-29.1 671.58-32.1L671.58-32.1Q673.58-35.95 676.53-38.1L676.53-38.1Q679.88-36.35 682.18-33L682.18-33Q680.53-29.7 677.53-27.55ZM681.38-22.5L681.38-4.2Q683.58-3.45 684.98-2.45L684.98-2.45 684.88 0 669.03 0 668.93-1.75Q670.68-2.75 672.73-3.45L672.73-3.45 672.73-19.95 669.03-20.65 668.78-23.05Q673.23-24.75 678.68-24.9L678.68-24.9 681.38-22.5ZM686.23-12.15L686.23-12.15Q686.23-17.8 689.78-21.4 693.33-25 698.78-25 704.23-25 707.73-21.35 711.23-17.7 711.23-11.9L711.23-11.9Q711.23-6.15 707.8-2.58 704.38 1 698.98 1L698.98 1Q693.48 1 689.85-2.73 686.23-6.45 686.23-12.15ZM700.63-3.75L700.63-3.75Q702.48-5.15 702.48-11.35L702.48-11.35Q702.48-20.2 698.43-20.2L698.43-20.2Q697.18-20.2 696.48-19.65L696.48-19.65Q694.98-17.65 694.98-12.05L694.98-12.05Q694.98-8.25 696.03-5.88 697.08-3.5 699.23-3.5L699.23-3.5Q699.93-3.5 700.63-3.75Z" opacity="1" transform="matrix(1,0,0,1,0,0)" fill="#e1e1dd" class="slogan-text-1" data-fill-palette-color="secondary" id="text-1"></path></svg></g></svg></g></svg></g></svg></g><g transform="matrix(1,0,0,1,83.57642377312905,0)"><svg viewBox="0 0 228.36715245374188 228.36715245374188" height="228.36715245374188" width="228.36715245374188"><g><svg></svg></g><g id="icon-0"><svg viewBox="0 0 228.36715245374188 228.36715245374188" height="228.36715245374188" width="228.36715245374188"><g><path d="M0 114.184c0-63.062 51.122-114.184 114.184-114.184 63.062 0 114.184 51.122 114.183 114.184 0 63.062-51.122 114.184-114.183 114.183-63.062 0-114.184-51.122-114.184-114.183zM114.184 221.198c59.102 0 107.014-47.912 107.014-107.014 0-59.102-47.912-107.014-107.014-107.014-59.102 0-107.014 47.912-107.014 107.014 0 59.102 47.912 107.014 107.014 107.014z" data-fill-palette-color="tertiary" fill="#e1e1dd" stroke="transparent"></path></g><g transform="matrix(1,0,0,1,58.79802120081752,47.155253995022136)"><svg viewBox="0 0 110.77111005210683 134.0566444636976" height="134.0566444636976" width="110.77111005210683"><g><svg xmlns="http://www.w3.org/2000/svg" xmlns:xlink="http://www.w3.org/1999/xlink" version="1.1" x="0" y="0" viewBox="44.467 0 423.06600000000003 512" enable-background="new 0 0 512 512" xml:space="preserve" height="134.0566444636976" width="110.77111005210683" class="icon-cg-0" data-fill-palette-color="accent" id="cg-0"><g fill="#e1e1dd" data-fill-palette-color="accent"><path d="M256 0C139.167 0 44.467 94.708 44.467 211.533 44.467 372.184 256 512 256 512s211.533-139.816 211.533-300.467C467.533 94.708 372.833 0 256 0zM256 375.941c-90.8 0-164.4-73.6-164.4-164.408 0-90.8 73.601-164.408 164.4-164.408s164.417 73.608 164.417 164.408C420.417 302.342 346.8 375.941 256 375.941z" fill="#e1e1dd" data-fill-palette-color="accent"></path><path d="M303.808 262.934c-2.583 5.199-6.008 9.983-10.225 14.199-7.842 7.851-17.675 12.967-28.35 14.917v-77.616h29.441v-19.617h-29.441V173.5c11.425-4.033 19.625-14.934 19.625-27.75 0-16.267-13.184-29.45-29.442-29.45s-29.442 13.184-29.442 29.45c0 12.816 8.2 23.717 19.634 27.75v21.316h-29.442v19.617h29.442v77.616c-10.684-1.95-20.517-7.066-28.35-14.917-4.217-4.216-7.65-9-10.225-14.199l18.941-19.05h-43.991c2.308 35.083 29.208 63.451 63.625 68.034h19.625c34.408-4.583 61.309-32.95 63.616-68.034h-43.991L303.808 262.934zM255.417 155.55c-5.408 0-9.808-4.399-9.808-9.8 0-5.417 4.4-9.816 9.808-9.816 5.409 0 9.817 4.4 9.817 9.816C265.233 151.15 260.825 155.55 255.417 155.55z" fill="#e1e1dd" data-fill-palette-color="accent"></path></g></svg></g></svg></g></svg></g></svg></g><g></g></svg></g><defs></defs></svg><rect width="257.2183082395043" height="247.2" fill="none" stroke="none" visibility="hidden"></rect></g></svg></g></svg>